<?xml version="1.0" standalone="no"?>
<!DOCTYPE svg PUBLIC "-//W3C//DTD SVG 20010904//EN"
 "http://www.w3.org/TR/2001/REC-SVG-20010904/DTD/svg10.dtd">
<svg version="1.0" xmlns="http://www.w3.org/2000/svg"
 width="1000.000000pt" height="1000.000000pt" viewBox="0 0 1000.000000 1000.000000"
 preserveAspectRatio="xMidYMid meet">
<metadata>
Created by potrace 1.14, written by Peter Selinger 2001-2017
</metadata>
<g transform="translate(0.000000,1000.000000) scale(0.100000,-0.100000)"
fill="#000000" stroke="none">
<path d="M0 5000 l0 -5000 5000 0 5000 0 0 5000 0 5000 -5000 0 -5000 0 0
-5000z m5460 595 c35 -76 36 -87 13 -107 -17 -15 -430 -254 -673 -389 l-115
-64 482 -5 c321 -3 486 -9 493 -16 7 -7 9 -114 8 -330 l-3 -319 -529 -3 c-292
-1 -533 1 -537 5 -4 5 -9 154 -10 333 l-2 325 -49 52 c-58 63 -56 76 24 121
117 66 522 295 663 375 84 48 162 86 178 86 24 1 31 -6 57 -64z m2690 40 c129
-40 228 -114 270 -200 22 -45 42 -156 31 -168 -4 -4 -77 -6 -161 -5 l-154 3
-6 30 c-11 51 -28 72 -77 97 -39 19 -64 23 -133 23 -131 0 -200 -36 -200 -105
0 -70 60 -101 309 -161 240 -57 349 -113 411 -209 42 -65 56 -148 41 -246 -27
-184 -142 -286 -375 -334 -144 -29 -287 -23 -450 21 -177 48 -293 178 -299
334 l-2 70 159 0 158 0 4 -37 c5 -59 29 -94 81 -119 42 -21 62 -24 163 -24 93
0 124 4 158 19 99 45 93 140 -10 190 -29 14 -125 43 -213 66 -286 73 -379 124
-443 245 -24 45 -27 61 -27 155 0 95 3 110 27 157 16 29 44 69 65 89 46 46
159 100 249 119 95 20 348 14 424 -10z m-2000 -495 l0 -500 321 -2 320 -3 0
-130 0 -130 -490 -3 -491 -2 0 628 c0 346 3 632 7 635 3 4 80 7 170 7 l163 0
0 -500z m1060 -135 l0 -635 -165 0 -165 0 0 635 0 635 165 0 165 0 0 -635z
m2470 500 l0 -135 -205 0 -205 0 0 -500 0 -500 -165 0 -165 0 0 500 0 500
-206 2 -205 3 0 128 c0 70 0 129 1 132 0 3 259 5 575 5 l575 0 0 -135z m-8390
-5 l0 -130 -320 0 -320 0 0 -135 0 -135 283 -2 282 -3 3 -127 3 -128 -286 0
-285 0 0 -240 0 -240 -165 0 -165 0 0 635 0 635 485 0 485 0 0 -130z m460
-505 l0 -635 -165 0 -165 0 0 635 0 635 165 0 165 0 0 -635z m530 135 l0 -500
323 -2 322 -3 3 -132 3 -133 -491 0 -490 0 0 635 0 635 165 0 165 0 0 -500z
m1214 491 c9 -14 185 -666 205 -755 10 -44 21 -81 27 -83 5 -1 24 61 41 140
18 78 48 198 68 267 19 69 54 195 77 280 l44 155 237 3 237 2 0 -635 0 -635
-162 0 -163 0 3 470 c1 270 -1 470 -7 470 -4 0 -14 -28 -21 -62 -16 -82 -63
-261 -140 -533 -35 -121 -70 -248 -78 -282 l-16 -63 -138 0 -137 0 -12 43 c-6
23 -48 175 -94 337 -70 249 -114 417 -141 539 -15 69 -19 -37 -14 -457 l5
-462 -152 0 -153 0 0 635 0 635 239 0 c132 0 242 -4 245 -9z"/>
<path d="M5315 5587 l-70 -42 -16 -65 c-8 -36 -12 -66 -7 -68 4 -2 40 16 80
40 75 46 78 51 91 141 3 20 3 37 -1 37 -4 0 -38 -20 -77 -43z"/>
<path d="M5029 5422 l-76 -44 -13 -65 c-7 -35 -11 -66 -9 -67 2 -2 38 16 80
40 l76 44 13 59 c7 33 11 63 9 68 -2 6 -38 -10 -80 -35z"/>
<path d="M4730 5252 l-74 -47 -13 -64 c-7 -35 -11 -66 -9 -68 7 -7 147 81 156
97 8 15 24 131 18 129 -2 0 -37 -21 -78 -47z"/>
<path d="M4733 4920 c-35 -33 -63 -62 -63 -65 0 -3 38 -5 84 -5 l84 0 65 58
c36 31 66 60 66 65 1 4 -38 7 -86 7 l-88 -1 -62 -59z"/>
<path d="M5052 4922 c-34 -31 -62 -60 -62 -64 0 -5 37 -8 83 -8 l82 0 67 58
c37 31 67 60 67 65 1 4 -38 7 -86 7 l-88 -1 -63 -57z"/>
<path d="M5364 4915 l-69 -64 88 -1 88 0 65 57 c35 31 64 60 64 65 0 4 -38 8
-84 8 l-84 0 -68 -65z"/>
</g>
</svg>
